# Blender v2.79 (sub 0) OBJ File: 'HockeyStick.blend'
# www.blender.org
mtllib HockeyStick_collisionMesh13.mtl
o Cube
v -0.998570 0.107334 0.031130
v -0.998570 0.107334 0.025100
v -0.973343 0.120928 0.031130
v -0.973343 0.120928 0.025100
v -0.993887 0.115190 0.032692
v -0.993887 0.115190 0.028816
v -0.981733 0.121739 0.032692
v -0.981733 0.121739 0.028816
vt 0.034243 0.795018
vt 0.035271 0.823998
vt 0.024510 0.811888
vt 0.023849 0.793259
vt 0.023824 0.537446
vt 0.039530 0.413354
vt 0.330935 0.636071
vt 0.346530 0.848563
vt 0.329909 0.840169
vt 0.330499 0.821503
vt 0.347119 0.829896
vt 0.346720 0.760005
vt 0.337514 0.740625
vt 0.329909 0.680918
vt 0.021644 0.490329
vt 0.029211 0.430546
vt 0.358694 0.817561
vt 0.357778 0.846600
vn 0.0962 0.9954 0.0000
vn 0.4744 -0.8803 0.0000
vn -0.4744 0.8803 0.0000
vn 0.1498 -0.2780 0.9488
vn -0.2944 0.5464 -0.7841
vn -0.8590 0.5120 0.0000
usemtl HockeyStick
s off
f 3/1/1 4/2/1 8/3/1 7/4/1
f 2/5/2 4/6/2 3/1/2 1/7/2
f 5/8/3 7/9/3 8/10/3 6/11/3
f 1/7/4 3/12/4 7/13/4 5/14/4
f 4/6/5 2/5/5 6/15/5 8/16/5
f 2/17/6 1/18/6 5/8/6 6/11/6
