# Blender v2.79 (sub 0) OBJ File: 'HockeyStick.blend'
# www.blender.org
mtllib HockeyStick_collisionMesh4.mtl
o Cube
v -0.881565 -0.010150 0.004997
v -0.881565 -0.010150 -0.004997
v -0.869922 0.013208 0.004997
v -0.869922 0.013208 -0.004997
v -0.895736 -0.009629 -0.004405
v -0.880894 0.016248 -0.004405
v -0.895736 -0.009629 0.004405
v -0.880894 0.016248 0.004405
vt 0.225813 0.694581
vt 0.221553 0.569052
vt 0.223011 0.815987
vt 0.532279 0.479011
vt 0.528049 0.604556
vt 0.514942 0.586844
vt 0.517679 0.442462
vt 0.224715 0.864012
vt 0.210935 0.868931
vt 0.209433 0.826596
vt 0.578466 0.781299
vt 0.576947 0.829424
vt 0.559964 0.817951
vt 0.561303 0.775530
vt 0.211222 0.731187
vt 0.208450 0.586816
vn 0.8950 -0.4461 0.0000
vn -0.0437 0.0235 0.9988
vn 0.2670 0.9637 0.0000
vn -0.0368 -0.9993 0.0000
vn -0.0437 0.0235 -0.9988
vn -0.8674 0.4975 0.0000
usemtl HockeyStick
s off
f 2/1/1 4/2/1 3/3/1 1/4/1
f 1/4/2 3/5/2 8/6/2 7/7/2
f 3/3/3 4/8/3 6/9/3 8/10/3
f 2/11/4 1/12/4 7/13/4 5/14/4
f 4/2/5 2/1/5 5/15/5 6/16/5
f 8/10/6 6/9/6 5/15/6 7/13/6
