# Blender v2.79 (sub 0) OBJ File: 'HockeyStick.blend'
# www.blender.org
mtllib HockeyStick_collisionMesh11.mtl
o Cube
v -0.998230 0.089971 0.025204
v -0.998230 0.089971 0.018458
v -0.965121 0.109989 0.025204
v -0.965121 0.109989 0.018458
v -0.999986 0.099384 0.028409
v -0.999986 0.099384 0.022100
v -0.968385 0.116412 0.028409
v -0.968385 0.116412 0.022100
vt 0.056971 0.437527
vt 0.037677 0.608730
vt 0.028653 0.574530
vt 0.048329 0.419080
vt 0.380953 0.796311
vt 0.379928 0.828793
vt 0.367913 0.838410
vt 0.368872 0.808026
vt 0.051966 0.814011
vt 0.053116 0.846426
vt 0.043840 0.833839
vt 0.042764 0.803518
vt 0.344455 0.565244
vt 0.363819 0.736322
vt 0.355391 0.754444
vt 0.335617 0.599191
vn -0.2033 0.3552 -0.9124
vn -0.9830 -0.1834 0.0000
vn 0.8915 0.4530 0.0000
vn 0.1825 -0.3187 0.9301
vn -0.4744 0.8803 0.0000
vn 0.5174 -0.8557 0.0000
usemtl HockeyStick
s off
f 4/1/1 2/2/1 6/3/1 8/4/1
f 2/5/2 1/6/2 5/7/2 6/8/2
f 3/9/3 4/10/3 8/11/3 7/12/3
f 1/13/4 3/14/4 7/15/4 5/16/4
f 6/3/5 5/16/5 7/12/5 8/4/5
f 2/2/6 4/1/6 3/9/6 1/13/6
