# Blender v2.79 (sub 0) OBJ File: 'HockeyStick.blend'
# www.blender.org
mtllib HockeyStick_collisionMesh10.mtl
o Cube
v -0.984254 0.067451 0.018108
v -0.984254 0.067451 0.010531
v -0.952832 0.089240 0.018108
v -0.952832 0.089240 0.010531
v -0.998230 0.089971 0.025204
v -0.998230 0.089971 0.018458
v -0.965121 0.109989 0.025204
v -0.965121 0.109989 0.018458
vt 0.082149 0.831664
vt 0.083440 0.868078
vt 0.053116 0.846426
vt 0.051966 0.814011
vt 0.374935 0.511657
vt 0.391496 0.685029
vt 0.363819 0.736322
vt 0.344455 0.565244
vt 0.084943 0.489134
vt 0.068429 0.662578
vt 0.037677 0.608730
vt 0.056971 0.437527
vt 0.414067 0.774249
vt 0.412915 0.810737
vt 0.379928 0.828793
vt 0.380953 0.796311
vn 0.8604 0.5096 0.0000
vn 0.1468 -0.2266 0.9628
vn -0.1626 0.2510 -0.9542
vn -0.8497 -0.5273 0.0000
vn 0.5698 -0.8218 0.0000
vn -0.5174 0.8557 0.0000
usemtl HockeyStick
s off
f 3/1/1 4/2/1 8/3/1 7/4/1
f 1/5/2 3/6/2 7/7/2 5/8/2
f 4/9/3 2/10/3 6/11/3 8/12/3
f 2/13/4 1/14/4 5/15/4 6/16/4
f 2/10/5 4/9/5 3/1/5 1/5/5
f 6/11/6 5/8/6 7/4/6 8/12/6
