# Blender v2.79 (sub 0) OBJ File: 'HockeyStick.blend'
# www.blender.org
mtllib HockeyStick_collisionMesh6.mtl
o Cube
v -0.909184 -0.007638 0.003960
v -0.909184 -0.007638 -0.003960
v -0.887978 0.018880 0.003960
v -0.887978 0.018880 -0.003960
v -0.923150 0.001738 0.004861
v -0.923150 0.001738 -0.002744
v -0.899953 0.026830 0.004861
v -0.899953 0.026830 -0.002744
vt 0.175897 0.760426
vt 0.482371 0.413354
vt 0.183007 0.839357
vt 0.182027 0.596382
vt 0.200430 0.833886
vt 0.201780 0.871947
vt 0.184304 0.875904
vt 0.502813 0.413788
vt 0.506021 0.578097
vt 0.488545 0.577372
vt 0.199530 0.595598
vt 0.196363 0.759919
vt 0.544870 0.769406
vt 0.543666 0.807546
vt 0.523278 0.801659
vt 0.524433 0.765037
vn -0.7343 0.6788 0.0000
vn 0.5531 0.8331 0.0000
vn 0.0440 -0.0379 0.9983
vn -0.0594 0.0511 -0.9969
vn -0.5574 -0.8303 0.0000
vn 0.7810 -0.6245 0.0000
usemtl HockeyStick
s off
f 6/1/1 5/2/1 7/3/1 8/4/1
f 3/5/2 4/6/2 8/7/2 7/3/2
f 1/8/3 3/9/3 7/10/3 5/2/3
f 4/11/4 2/12/4 6/1/4 8/4/4
f 2/13/5 1/14/5 5/15/5 6/16/5
f 2/12/6 4/11/6 3/5/6 1/8/6
