# Blender v2.79 (sub 0) OBJ File: 'HockeyStick.blend'
# www.blender.org
mtllib HockeyStick.mtl
o Cube
v 0.000000 -0.010110 -0.007735
v 0.000000 -0.010110 0.007735
v -0.808350 -0.010110 0.007735
v -0.808350 -0.010110 -0.007735
v 0.000000 0.010110 -0.007735
v 0.000000 0.010110 0.007735
v -0.808350 0.010110 0.007735
v -0.808350 0.010110 -0.007735
v -0.881565 -0.010150 0.004997
v -0.881565 -0.010150 -0.004997
v -0.869922 0.013208 0.004997
v -0.869922 0.013208 -0.004997
v -0.909184 -0.007638 0.003960
v -0.909184 -0.007638 -0.003960
v -0.887978 0.018880 0.003960
v -0.887978 0.018880 -0.003960
v -0.895736 -0.009629 -0.004405
v -0.880894 0.016248 -0.004405
v -0.895736 -0.009629 0.004405
v -0.880894 0.016248 0.004405
v -0.864189 -0.010095 -0.005689
v -0.858368 0.011593 -0.005689
v -0.864189 -0.010095 0.005689
v -0.858368 0.011593 0.005689
v -0.923150 0.001738 0.004861
v -0.923150 0.001738 -0.002744
v -0.899953 0.026830 0.004861
v -0.899953 0.026830 -0.002744
v -0.942791 0.019160 0.007183
v -0.942791 0.019160 -0.000408
v -0.917896 0.043434 0.007183
v -0.917896 0.043434 -0.000408
v -0.964549 0.041817 0.011158
v -0.964549 0.041817 0.003558
v -0.935369 0.065239 0.011158
v -0.935369 0.065239 0.003558
v -0.984254 0.067451 0.018108
v -0.984254 0.067451 0.010531
v -0.952832 0.089240 0.018108
v -0.952832 0.089240 0.010531
v -0.998230 0.089971 0.025204
v -0.998230 0.089971 0.018458
v -0.965121 0.109989 0.025204
v -0.965121 0.109989 0.018458
v -0.999986 0.099384 0.028409
v -0.999986 0.099384 0.022100
v -0.968385 0.116412 0.028409
v -0.968385 0.116412 0.022100
v -0.998570 0.107334 0.031130
v -0.998570 0.107334 0.025100
v -0.973343 0.120928 0.031130
v -0.973343 0.120928 0.025100
v -0.993887 0.115190 0.032692
v -0.993887 0.115190 0.028816
v -0.981733 0.121739 0.032692
v -0.981733 0.121739 0.028816
vt 0.981067 0.271534
vt 0.981067 0.346628
vt 0.000160 0.346626
vt 0.000160 0.271543
vt 0.981067 0.173389
vt 0.000160 0.173400
vt 0.000160 0.098306
vt 0.981067 0.098306
vt 0.999840 0.000160
vt 0.999840 0.098305
vt 0.981067 0.000160
vt 0.000160 0.000163
vt 0.234273 0.543972
vt 0.243227 0.646915
vt 0.225813 0.694581
vt 0.221553 0.569052
vt 0.208450 0.586816
vt 0.211222 0.731187
vt 0.196363 0.759919
vt 0.199530 0.595598
vt 0.599489 0.788528
vt 0.597760 0.843322
vt 0.576947 0.829424
vt 0.578466 0.781299
vt 0.549704 0.526610
vt 0.540775 0.629587
vt 0.528049 0.604556
vt 0.532279 0.479011
vt 0.236909 0.804703
vt 0.238849 0.859384
vt 0.224715 0.864012
vt 0.223011 0.815987
vt 0.200430 0.833886
vt 0.201780 0.871947
vt 0.184304 0.875904
vt 0.183007 0.839357
vt 0.561303 0.775530
vt 0.559964 0.817951
vt 0.543666 0.807546
vt 0.544870 0.769406
vt 0.209433 0.826596
vt 0.210935 0.868931
vt 0.517679 0.442462
vt 0.514942 0.586844
vt 0.506021 0.578097
vt 0.502813 0.413788
vt 0.296679 0.760746
vt 0.299317 0.835093
vt 0.605831 0.678778
vt 0.592060 0.760006
vt 0.667026 0.812621
vt 0.664674 0.887122
vt 0.285526 0.413354
vt 0.299317 0.494528
vt 0.154535 0.881348
vt 0.153241 0.844871
vt 0.488545 0.577372
vt 0.482371 0.413354
vt 0.175897 0.760426
vt 0.182027 0.596382
vt 0.523278 0.801659
vt 0.524433 0.765037
vt 0.152557 0.578705
vt 0.144174 0.744112
vt 0.106579 0.712459
vt 0.119802 0.538716
vt 0.459081 0.595174
vt 0.450654 0.429803
vt 0.491317 0.796879
vt 0.492470 0.760327
vt 0.068429 0.662578
vt 0.084943 0.489134
vt 0.452896 0.796924
vt 0.454051 0.760325
vt 0.120289 0.881347
vt 0.118993 0.844824
vt 0.426336 0.635304
vt 0.413066 0.461619
vt 0.082149 0.831664
vt 0.083440 0.868078
vt 0.053116 0.846426
vt 0.051966 0.814011
vt 0.412915 0.810737
vt 0.414067 0.774249
vt 0.391496 0.685029
vt 0.374935 0.511657
vt 0.056971 0.437527
vt 0.037677 0.608730
vt 0.028653 0.574530
vt 0.048329 0.419080
vt 0.363819 0.736322
vt 0.344455 0.565244
vt 0.379928 0.828793
vt 0.380953 0.796311
vt 0.368872 0.808026
vt 0.367913 0.838410
vt 0.357778 0.846600
vt 0.358694 0.817561
vt 0.043840 0.833839
vt 0.042764 0.803518
vt 0.355391 0.754444
vt 0.335617 0.599191
vt 0.034243 0.795018
vt 0.035271 0.823998
vt 0.024510 0.811888
vt 0.023849 0.793259
vt 0.346720 0.760005
vt 0.330935 0.636071
vt 0.023824 0.537446
vt 0.039530 0.413354
vt 0.346530 0.848563
vt 0.329909 0.840169
vt 0.330499 0.821503
vt 0.347119 0.829896
vt 0.337514 0.740625
vt 0.329909 0.680918
vt 0.021644 0.490329
vt 0.029211 0.430546
vn 0.0000 -1.0000 0.0000
vn 0.0000 1.0000 0.0000
vn 1.0000 0.0000 0.0000
vn -0.0000 -0.0000 1.0000
vn -0.0468 0.0182 -0.9987
vn 0.0000 0.0000 -1.0000
vn -0.0375 0.0258 -0.9990
vn 0.0032 -1.0000 0.0000
vn -0.0468 0.0182 0.9987
vn 0.1384 0.9904 0.0000
vn 0.5531 0.8331 0.0000
vn -0.1465 -0.9892 0.0000
vn 0.3483 0.9374 0.0000
vn -0.0375 0.0258 0.9990
vn -0.0437 0.0235 0.9988
vn 0.2670 0.9637 0.0000
vn -0.0368 -0.9993 0.0000
vn -0.0437 0.0235 -0.9988
vn 0.0296 0.9996 0.0000
vn -0.0386 0.0054 0.9992
vn -0.0003 -1.0000 0.0000
vn -0.0386 0.0054 -0.9992
vn 0.6792 0.7340 0.0000
vn 0.0440 -0.0379 0.9983
vn -0.0594 0.0511 -0.9969
vn -0.5574 -0.8303 0.0000
vn -0.0877 0.0994 -0.9912
vn 0.0654 -0.0637 0.9958
vn -0.0658 0.0641 -0.9958
vn -0.6636 -0.7481 0.0000
vn -0.1312 0.1759 -0.9756
vn -0.7213 -0.6926 0.0000
vn 0.7804 0.6253 0.0000
vn 0.0879 -0.0997 0.9911
vn 0.8604 0.5096 0.0000
vn -0.7928 -0.6095 0.0000
vn 0.8086 0.5883 0.0000
vn 0.1308 -0.1753 0.9758
vn -0.2033 0.3552 -0.9124
vn 0.1468 -0.2266 0.9628
vn -0.1626 0.2510 -0.9542
vn -0.8497 -0.5273 0.0000
vn -0.9845 0.1754 0.0000
vn -0.9830 -0.1834 0.0000
vn 0.8915 0.4530 0.0000
vn 0.1825 -0.3187 0.9301
vn 0.0962 0.9954 0.0000
vn 0.6733 0.7394 0.0000
vn 0.1874 -0.3477 0.9187
vn -0.2032 0.3771 -0.9036
vn -0.4744 0.8803 0.0000
vn 0.1498 -0.2780 0.9488
vn -0.2944 0.5464 -0.7841
vn -0.8590 0.5120 0.0000
usemtl HockeyStick
s off
f 1/1/1 2/2/1 3/3/1 4/4/1
f 5/5/2 8/6/2 7/7/2 6/8/2
f 1/9/3 5/10/3 6/8/3 2/11/3
f 2/11/4 6/8/4 7/7/4 3/12/4
f 22/13/5 21/14/5 10/15/5 12/16/5
f 5/5/6 1/1/6 4/4/6 8/6/6
f 18/17/7 17/18/7 14/19/7 16/20/7
f 21/21/8 23/22/8 9/23/8 10/24/8
f 23/25/9 24/26/9 11/27/9 9/28/9
f 24/29/10 22/30/10 12/31/10 11/32/10
f 15/33/11 16/34/11 28/35/11 27/36/11
f 17/37/12 19/38/12 13/39/12 14/40/12
f 20/41/13 18/42/13 16/34/13 15/33/13
f 19/43/14 20/44/14 15/45/14 13/46/14
f 9/28/15 11/27/15 20/44/15 19/43/15
f 11/32/16 12/31/16 18/42/16 20/41/16
f 10/24/17 9/23/17 19/38/17 17/37/17
f 12/16/18 10/15/18 17/18/18 18/17/18
f 7/47/19 8/48/19 22/30/19 24/29/19
f 3/49/20 7/50/20 24/26/20 23/25/20
f 4/51/21 3/52/21 23/22/21 21/21/21
f 8/53/22 4/54/22 21/14/22 22/13/22
f 27/36/23 28/35/23 32/55/23 31/56/23
f 13/46/24 15/45/24 27/57/24 25/58/24
f 16/20/25 14/19/25 26/59/25 28/60/25
f 14/40/26 13/39/26 25/61/26 26/62/26
f 32/63/27 30/64/27 34/65/27 36/66/27
f 25/58/28 27/57/28 31/67/28 29/68/28
f 28/60/29 26/59/29 30/64/29 32/63/29
f 26/62/30 25/61/30 29/69/30 30/70/30
f 36/66/31 34/65/31 38/71/31 40/72/31
f 30/70/32 29/69/32 33/73/32 34/74/32
f 31/56/33 32/55/33 36/75/33 35/76/33
f 29/68/34 31/67/34 35/77/34 33/78/34
f 39/79/35 40/80/35 44/81/35 43/82/35
f 34/74/36 33/73/36 37/83/36 38/84/36
f 35/76/37 36/75/37 40/80/37 39/79/37
f 33/78/38 35/77/38 39/85/38 37/86/38
f 44/87/39 42/88/39 46/89/39 48/90/39
f 37/86/40 39/85/40 43/91/40 41/92/40
f 40/72/41 38/71/41 42/88/41 44/87/41
f 38/84/42 37/83/42 41/93/42 42/94/42
f 46/95/43 45/96/43 49/97/43 50/98/43
f 42/94/44 41/93/44 45/96/44 46/95/44
f 43/82/45 44/81/45 48/99/45 47/100/45
f 41/92/46 43/91/46 47/101/46 45/102/46
f 51/103/47 52/104/47 56/105/47 55/106/47
f 47/100/48 48/99/48 52/104/48 51/103/48
f 45/102/49 47/101/49 51/107/49 49/108/49
f 48/90/50 46/89/50 50/109/50 52/110/50
f 53/111/51 55/112/51 56/113/51 54/114/51
f 49/108/52 51/107/52 55/115/52 53/116/52
f 52/110/53 50/109/53 54/117/53 56/118/53
f 50/98/54 49/97/54 53/111/54 54/114/54
